# xmcd
#
# Track frame offsets: 
#        150
#        20755
#        58163
#        77288
#        94286
#        108229
#        129133
#        145324
#        166591
#        211710
#        255321
#        273368
#        292158
#        312733
#
# Disc length: 4377 seconds
#
# Revision: 0
# Processed by: cddbd v1.5.2PL0 Copyright (c) Steve Scherf et al.
# Submitted via: ExactAudioCopyFreeDBPlugin 1.0
#
DISCID=c011170e
DTITLE=Big Daddy Wilson, Vanessa Collier, Si Cranstoun - Blues Caravan
DTITLE=2017
DYEAR=2017
DGENRE=Blues
TTITLE0=Unchain My Heart
TTITLE1=Tongue Tied
TTITLE2=Poisoned The Well
TTITLE3=Two Parts Sugar, One Part Lime
TTITLE4=All Around The World
TTITLE5=Coupe De Ville
TTITLE6=Run Free
TTITLE7=Cross Green Road
TTITLE8=Walk A Mile In My Shoes
TTITLE9=Contry Boy Soul Medley
TTITLE10=You're Gonna Make Me Cry
TTITLE11=I Wanna Know Why
TTITLE12=Bring It On Home To Me
TTITLE13=Twistin' The Night Away
EXTD=
EXTT0=
EXTT1=
EXTT2=
EXTT3=
EXTT4=
EXTT5=
EXTT6=
EXTT7=
EXTT8=
EXTT9=
EXTT10=
EXTT11=
EXTT12=
EXTT13=
PLAYORDER=
